<?xml version="1.0" encoding="UTF-8" standalone="no"?>
<!DOCTYPE svg PUBLIC "-//W3C//DTD SVG 1.1//EN" "http://www.w3.org/Graphics/SVG/1.1/DTD/svg11.dtd">
<svg width="100%" height="100%" viewBox="0 0 1400 380" version="1.1" xmlns="http://www.w3.org/2000/svg" xmlns:xlink="http://www.w3.org/1999/xlink" xml:space="preserve" xmlns:serif="http://www.serif.com/" style="fill-rule:evenodd;clip-rule:evenodd;stroke-linejoin:round;stroke-miterlimit:2;">
    <g>
        <g transform="matrix(1,0,0,1,-546.715,-700.962)">
            <path d="M678.257,791.663C672.39,790.063 666.523,789.263 660.657,789.263C647.857,789.263 636.523,793.93 626.657,803.263C616.79,812.596 609.59,825.263 605.057,841.263L605.057,795.663L545.857,795.663L545.857,996.063L609.857,996.063L609.857,893.263C609.857,877.796 613.923,866.196 622.057,858.463C630.19,850.73 640.79,846.863 653.857,846.863C663.723,846.863 671.857,848.463 678.257,851.663L678.257,791.663Z" style="fill:rgb(109,40,217);fill-rule:nonzero;"/>
            <path d="M724.857,977.663C742.057,994.196 765.723,1002.46 795.857,1002.46C825.99,1002.46 849.657,994.196 866.857,977.663C884.057,961.13 892.657,938.196 892.657,908.863L892.657,795.663L828.657,795.663L828.657,912.463C828.657,923.13 825.723,931.663 819.857,938.063C813.99,944.463 805.99,947.663 795.857,947.663C785.723,947.663 777.723,944.463 771.857,938.063C765.99,931.663 763.057,923.13 763.057,912.463L763.057,795.663L699.057,795.663L699.057,908.863C699.057,938.196 707.657,961.13 724.857,977.663Z" style="fill:rgb(109,40,217);fill-rule:nonzero;"/>
            <path d="M929.657,987.863C939.123,997.596 952.523,1002.46 969.857,1002.46C974.657,1002.46 979.79,1001.73 985.257,1000.26C990.723,998.796 994.923,996.996 997.857,994.863L997.857,947.663C995.99,948.996 993.19,949.663 989.457,949.663C986.257,949.663 983.79,948.663 982.057,946.663C980.323,944.663 979.457,941.796 979.457,938.063L979.457,696.063L915.457,696.063L915.457,947.263C915.457,964.596 920.19,978.13 929.657,987.863Z" style="fill:rgb(109,40,217);fill-rule:nonzero;"/>
            <path d="M1195.46,912.463C1197.59,902.863 1198.66,893.796 1198.66,885.263C1198.66,865.53 1194.72,848.463 1186.86,834.063C1178.99,819.663 1167.99,808.596 1153.86,800.863C1139.72,793.13 1123.46,789.263 1105.06,789.263C1085.32,789.263 1067.72,793.73 1052.26,802.663C1036.79,811.596 1024.79,824.13 1016.26,840.263C1007.72,856.396 1003.46,874.73 1003.46,895.263C1003.46,928.596 1013.32,954.796 1033.06,973.863C1052.79,992.93 1079.59,1002.46 1113.46,1002.46C1127.59,1002.46 1141.46,1000.86 1155.06,997.663C1168.66,994.463 1179.72,989.796 1188.26,983.663L1188.26,931.663C1180.52,936.996 1170.99,941.263 1159.66,944.463C1148.32,947.663 1135.72,949.263 1121.86,949.263C1104.79,949.263 1091.66,946.463 1082.46,940.863C1073.26,935.263 1067.32,925.796 1064.66,912.463L1195.46,912.463ZM1077.26,849.463C1084.32,843.196 1093.46,840.063 1104.66,840.063C1116.66,840.063 1125.99,843.196 1132.66,849.463C1139.32,855.73 1142.92,864.863 1143.46,876.863L1063.86,876.863C1065.72,864.863 1070.19,855.73 1077.26,849.463Z" style="fill:rgb(109,40,217);fill-rule:nonzero;"/>
            <path d="M1320.31,991.522C1319.06,992.192 1317.78,992.839 1316.46,993.463C1303.79,999.463 1288.66,1002.46 1271.06,1002.46C1258.79,1002.46 1247.52,1000.93 1237.26,997.863C1226.99,994.796 1218.92,990.996 1213.06,986.463L1213.06,938.063C1218.66,942.063 1226.06,945.596 1235.26,948.663C1244.46,951.73 1253.59,953.263 1262.66,953.263C1273.86,953.263 1282.12,951.596 1287.46,948.263C1292.79,944.93 1295.46,940.463 1295.46,934.863C1295.46,931.13 1294.19,927.996 1291.66,925.463C1289.12,922.93 1284.66,920.33 1278.26,917.663L1257.06,908.863C1242.39,902.463 1231.39,894.73 1224.06,885.663C1216.72,876.596 1213.06,865.263 1213.06,851.663C1213.06,839.93 1216.39,829.33 1223.06,819.863C1229.72,810.396 1239.32,802.93 1251.86,797.463C1264.39,791.996 1279.19,789.263 1296.26,789.263C1305.32,789.263 1314.19,790.263 1322.86,792.263C1331.52,794.263 1338.12,796.596 1342.66,799.263L1342.66,848.063C1329.86,841.396 1316.92,838.063 1303.86,838.063C1294.52,838.063 1287.32,839.396 1282.26,842.063C1277.19,844.73 1274.66,848.463 1274.66,853.263C1274.66,856.996 1275.72,859.996 1277.86,862.263C1279.99,864.53 1283.72,866.73 1289.06,868.863L1309.06,877.263C1325.06,883.93 1336.66,891.796 1343.86,900.863C1350.57,909.317 1354.15,919.973 1354.61,932.832C1353.44,932.749 1352.25,932.708 1351.06,932.708C1341.73,932.708 1333.97,934.764 1327.66,938.332C1320.7,942.268 1315.7,947.271 1312.37,953.024C1308.77,959.238 1307.19,965.354 1307.19,971.241C1307.19,975.954 1308.36,980.112 1310.46,983.777C1312.63,987.581 1316.19,990.334 1320.31,991.522Z" style="fill:rgb(109,40,217);"/>
            <path d="M1380.26,942.663L1380.26,795.663L1439.46,795.663L1439.46,825.663C1451.99,801.396 1471.99,789.263 1499.46,789.263C1517.06,789.263 1532.86,793.863 1546.86,803.063C1560.86,812.263 1571.79,824.996 1579.66,841.263C1587.52,857.53 1591.46,875.796 1591.46,896.063C1591.46,916.063 1587.46,934.13 1579.46,950.263C1571.46,966.396 1560.46,979.13 1546.46,988.463C1532.46,997.796 1516.79,1002.46 1499.46,1002.46C1474.39,1002.46 1455.46,992.33 1442.66,972.063L1442.66,1078.06L1380.26,1078.06L1380.26,1042.66C1380.59,1042.34 1380.92,1042.02 1381.25,1041.69C1381.31,1041.63 1381.38,1041.56 1381.44,1041.5C1394.93,1027.55 1401.86,1010.14 1401.86,989.108C1401.86,979.147 1399.74,969.989 1395.61,961.608C1391.76,953.785 1386.6,947.499 1380.26,942.663ZM1516.26,932.463C1524.79,923.13 1529.06,910.863 1529.06,895.663C1529.06,880.463 1524.79,868.263 1516.26,859.063C1507.72,849.863 1496.66,845.263 1483.06,845.263C1469.19,845.263 1457.86,849.93 1449.06,859.263C1440.26,868.596 1435.86,880.863 1435.86,896.063C1435.86,911.263 1440.26,923.463 1449.06,932.663C1457.86,941.863 1469.19,946.463 1483.06,946.463C1496.66,946.463 1507.72,941.796 1516.26,932.463Z" style="fill:rgb(109,40,217);"/>
            <path d="M1808.66,947.263C1806.52,948.33 1803.99,948.863 1801.06,948.863C1793.86,948.863 1790.26,944.863 1790.26,936.863L1790.26,858.863C1790.26,836.73 1782.86,819.596 1768.06,807.463C1753.26,795.33 1730.79,789.263 1700.66,789.263C1684.66,789.263 1668.46,791.596 1652.06,796.263C1635.66,800.93 1622.39,806.33 1612.26,812.463L1612.26,872.063C1624.26,864.596 1637.79,858.53 1652.86,853.863C1667.92,849.196 1682.79,846.863 1697.46,846.863C1708.66,846.863 1716.79,848.263 1721.86,851.063C1726.92,853.863 1729.46,857.396 1729.46,861.663C1729.46,865.396 1727.99,868.596 1725.06,871.263C1721.86,874.196 1717.32,876.463 1711.46,878.063C1705.59,879.663 1697.06,881.53 1685.86,883.663C1679.72,884.73 1674.66,885.663 1670.66,886.463C1658.12,889.396 1647.46,892.596 1638.66,896.063C1629.86,899.53 1622.52,904.33 1616.66,910.463C1607.32,920.33 1602.66,932.863 1602.66,948.063C1602.66,964.33 1608.19,977.463 1619.26,987.463C1630.32,997.463 1645.06,1002.46 1663.46,1002.46C1675.72,1002.46 1687.06,1000.4 1697.46,996.263C1707.86,992.13 1716.52,986.463 1723.46,979.263C1728.79,973.93 1732.52,968.73 1734.66,963.663C1734.92,975.93 1738.86,985.396 1746.46,992.063C1754.06,998.73 1764.52,1002.06 1777.86,1002.06C1783.72,1002.06 1789.72,1001.2 1795.86,999.463C1801.99,997.73 1806.26,995.93 1808.66,994.063L1808.66,947.263ZM1729.86,928.863C1727.19,936.33 1723.32,942.596 1718.26,947.663C1710.26,955.663 1700.52,959.663 1689.06,959.663C1682.12,959.663 1676.79,957.996 1673.06,954.663C1669.32,951.33 1667.46,947.13 1667.46,942.063C1667.46,937.263 1669.46,932.863 1673.46,928.863C1676.66,925.93 1680.79,923.53 1685.86,921.663C1690.92,919.796 1697.59,917.93 1705.86,916.063C1718.92,913.13 1728.26,909.263 1733.86,904.463C1733.86,913.263 1732.52,921.396 1729.86,928.863Z" style="fill:rgb(109,40,217);fill-rule:nonzero;"/>
            <path d="M1843.26,987.863C1852.72,997.596 1866.12,1002.46 1883.46,1002.46C1888.26,1002.46 1893.39,1001.73 1898.86,1000.26C1904.32,998.796 1908.52,996.996 1911.46,994.863L1911.46,947.663C1909.59,948.996 1906.79,949.663 1903.06,949.663C1899.86,949.663 1897.39,948.663 1895.66,946.663C1893.92,944.663 1893.06,941.796 1893.06,938.063L1893.06,696.063L1829.06,696.063L1829.06,947.263C1829.06,964.596 1833.79,978.13 1843.26,987.863Z" style="fill:rgb(109,40,217);fill-rule:nonzero;"/>
        </g>
        <g id="Comma-Mask" serif:id="Comma Mask" transform="matrix(1,0,0,1,230.622,-701.25)">
            <path d="M537.457,1047C540.479,1047.88 543.857,1048.33 547.59,1048.33C555.057,1048.33 562.834,1046.82 570.923,1043.8C579.012,1040.77 586.079,1036.24 592.123,1030.2C602.612,1019.35 607.857,1005.75 607.857,989.396C607.857,982.107 606.346,975.396 603.323,969.263C600.301,963.13 596.168,958.33 590.923,954.863C585.679,951.396 579.946,949.663 573.723,949.663C567.679,949.663 562.612,950.819 558.523,953.13C554.434,955.441 551.412,958.285 549.457,961.663C547.501,965.041 546.523,968.33 546.523,971.53C546.523,973.13 546.879,974.552 547.59,975.796C552.568,976.152 557.234,978.33 561.59,982.33C565.946,986.33 568.123,991.974 568.123,999.263C568.123,1004.77 566.701,1009.53 563.857,1013.53C561.012,1017.53 557.501,1020.55 553.323,1022.6C549.146,1024.64 545.012,1025.66 540.923,1025.66C539.323,1025.66 538.168,1025.57 537.457,1025.4L537.457,1047Z" style="fill:rgb(109,40,217);fill-rule:nonzero;"/>
        </g>
        <g id="Comma" transform="matrix(1,0,0,1,230.622,-701.25)">
            <path d="M537.457,1047C540.479,1047.88 543.857,1048.33 547.59,1048.33C555.057,1048.33 562.834,1046.82 570.923,1043.8C579.012,1040.77 586.079,1036.24 592.123,1030.2C602.612,1019.35 607.857,1005.75 607.857,989.396C607.857,982.107 606.346,975.396 603.323,969.263C600.301,963.13 596.168,958.33 590.923,954.863C585.679,951.396 579.946,949.663 573.723,949.663C567.679,949.663 562.612,950.819 558.523,953.13C554.434,955.441 551.412,958.285 549.457,961.663C547.501,965.041 546.523,968.33 546.523,971.53C546.523,973.13 546.879,974.552 547.59,975.796C552.568,976.152 557.234,978.33 561.59,982.33C565.946,986.33 568.123,991.974 568.123,999.263C568.123,1004.77 566.701,1009.53 563.857,1013.53C561.012,1017.53 557.501,1020.55 553.323,1022.6C549.146,1024.64 545.012,1025.66 540.923,1025.66C539.323,1025.66 538.168,1025.57 537.457,1025.4L537.457,1047Z" style="fill:rgb(109,40,217);fill-rule:nonzero;"/>
        </g>
    </g>
</svg>
